<?xml version="1.0" encoding="utf-8"?>
<!-- Generator: Adobe Illustrator 16.0.0, SVG Export Plug-In . SVG Version: 6.00 Build 0)  -->
<!DOCTYPE svg PUBLIC "-//W3C//DTD SVG 1.1//EN" "http://www.w3.org/Graphics/SVG/1.1/DTD/svg11.dtd">
<svg version="1.1" id="Layer_1" xmlns="http://www.w3.org/2000/svg" xmlns:xlink="http://www.w3.org/1999/xlink" x="0px" y="0px"
	 width="40px" height="40px" viewBox="0 0 40 40" enable-background="new 0 0 40 40" xml:space="preserve">
<g>
	<path fill="#E04453" d="M39.659,20.129c-0.662-1.009-0.806-1.987-0.285-3.123c0.625-1.362,0.238-2.485-0.971-3.407
		c-0.823-0.628-1.2-1.479-1.108-2.522c0.133-1.534-0.516-2.598-1.986-3.106c-1.022-0.353-1.639-1-1.902-2.051
		c-0.381-1.521-1.325-2.27-2.896-2.268c-1.118,0.001-1.894-0.46-2.488-1.392c-0.828-1.293-1.952-1.588-3.438-1.132
		c-0.963,0.295-1.921,0.301-2.75-0.497c-0.862-0.83-2.493-0.94-3.339-0.184c-1.018,0.909-2.094,1.033-3.34,0.614
		c-1.182-0.397-2.418-0.028-3.046,1.029c-0.688,1.16-1.641,1.571-2.928,1.574c-1.224,0.002-2.245,0.826-2.51,2.007
		C6.398,6.874,5.721,7.604,4.561,7.994c-1.261,0.425-2.007,1.415-1.876,2.677c0.144,1.385-0.381,2.34-1.417,3.171
		c-0.916,0.734-1.178,2.194-0.65,3.212c0.474,0.915,0.417,1.8-0.071,2.67c-0.976,1.739-0.929,2.507,0.339,4.027
		c0.603,0.723,0.785,1.507,0.562,2.417c-0.407,1.661-0.004,2.567,1.449,3.435c0.844,0.506,1.375,1.112,1.5,2.248
		c0.185,1.688,0.832,2.562,2.612,2.818c1.02,0.145,1.74,0.704,2.13,1.615c0.73,1.705,1.948,2.034,3.119,1.843
		c1.181-0.191,2.094,0.137,2.894,1.039c0.891,1.005,2.217,1.122,3.418,0.468c1.007-0.549,2.022-0.524,3.02,0.063
		c1.055,0.622,2.393,0.438,3.215-0.485c0.78-0.874,1.688-1.236,2.878-1.113c1.814,0.186,2.491-0.238,3.265-1.927
		c0.39-0.854,1.092-1.224,1.905-1.517c0.685-0.245,1.352-0.545,2.026-0.82c0.083-0.089,0.164-0.176,0.245-0.266
		c0.162-0.646,0.357-1.29,0.479-1.945c0.171-0.917,0.658-1.562,1.479-1.991c1.369-0.718,1.874-1.917,1.473-3.441
		c-0.266-1.014-0.044-1.896,0.703-2.649C40.248,22.541,40.418,21.282,39.659,20.129z"/>
	<g>
		<g>
			<path fill="none" stroke="#FFFFFF" stroke-width="1.5" stroke-miterlimit="10" d="M26.538,21.876c0,0,3.688-3.771,5.676,0.283
				c1.502,4.974-4.061,6.265-6.121,3.041c-2.394-3.74-5.795-12.64-3.436-13.584c1.85-0.74,2.039,1.131,2.228,1.917
				c0.216,0.901-0.38,1.003-0.38,1.003s-0.674,0.07-0.4-0.932c0.406-1.542,1.899-2.593,3.172-1.602
				c3.122,2.668-6.774,7.773-7.348,8.251c-0.602,0.501-1.738,1.305-1.135,2.352l1.067,1.824l0.926-1.894"/>
			<path fill="none" stroke="#FFFFFF" stroke-width="1.5" stroke-miterlimit="10" d="M13.008,21.876c0,0-3.689-3.771-5.677,0.283
				c-1.5,4.974,4.061,6.265,6.123,3.041c2.393-3.74,5.793-12.64,3.435-13.584c-1.85-0.74-2.039,1.131-2.228,1.917
				c-0.215,0.9,0.379,1.003,0.379,1.003s0.676,0.07,0.401-0.932c-0.405-1.542-1.9-2.593-3.173-1.601
				c-3.121,2.667,6.774,7.773,7.349,8.25c0.601,0.501,1.738,1.307,1.135,2.352"/>
		</g>
	</g>
</g>
</svg>
